<svg width="201" height="201" viewBox="0 0 201 201" fill="none" xmlns="http://www.w3.org/2000/svg">
<path d="M146.104 10.4388C143.487 10.4388 141.363 8.3152 141.363 5.69869C141.363 3.08217 143.487 0.958618 146.104 0.958618H171.6C179.426 0.958618 186.536 4.15816 191.688 9.31062C196.84 14.4631 200.04 21.5732 200.04 29.399V54.3697C200.04 56.9862 197.916 59.1098 195.3 59.1098C192.683 59.1098 190.56 56.9862 190.56 54.3697V29.399C190.56 24.1897 188.427 19.4496 184.986 16.0131C181.549 12.5765 176.809 10.4388 171.6 10.4388H146.104ZM190.56 147.076C190.56 144.459 192.683 142.336 195.3 142.336C197.916 142.336 200.04 144.459 200.04 147.076V171.601C200.04 179.427 196.84 186.537 191.688 191.689C186.536 196.842 179.426 200.041 171.6 200.041H145.928C143.312 200.041 141.188 197.918 141.188 195.301C141.188 192.685 143.312 190.561 145.928 190.561H171.6C176.809 190.561 181.549 188.428 184.986 184.987C188.422 181.55 190.56 176.81 190.56 171.601V147.076ZM53.8773 190.561C56.4938 190.561 58.6173 192.685 58.6173 195.301C58.6173 197.918 56.4938 200.041 53.8773 200.041H29.4C21.5742 200.041 14.4642 196.842 9.31184 191.689C4.15946 186.537 0.959961 179.427 0.959961 171.601V147.076C0.959961 144.459 3.08348 142.336 5.69996 142.336C8.31644 142.336 10.44 144.459 10.44 147.076V171.601C10.44 176.81 12.573 181.55 16.0142 184.987C19.4507 188.424 24.1907 190.561 29.4 190.561H53.8773ZM10.44 53.9668C10.44 56.5833 8.31644 58.7069 5.69996 58.7069C3.08348 58.7069 0.959961 56.5833 0.959961 53.9668V29.399C0.959961 21.5732 4.15946 14.4631 9.31184 9.31062C14.4642 4.15816 21.5742 0.958618 29.4 0.958618H54.6025C57.219 0.958618 59.3425 3.08217 59.3425 5.69869C59.3425 8.3152 57.219 10.4388 54.6025 10.4388H29.4C24.1907 10.4388 19.4507 12.5718 16.0142 16.0131C12.5777 19.4496 10.44 24.1897 10.44 29.399V53.9668ZM59.6127 60.053C62.0112 60.053 63.9783 62.0154 63.9783 64.4186V78.3355C63.9783 80.734 62.0159 82.7011 59.6127 82.7011C57.2143 82.7011 55.2472 80.7387 55.2472 78.3355V64.4186C55.2472 62.0202 57.2095 60.053 59.6127 60.053ZM99.0211 65.343C99.0306 62.7359 101.154 60.6313 103.761 60.6408C106.368 60.6503 108.473 62.7738 108.463 65.3809L108.188 104.335C108.169 107.179 108.032 111.07 106.273 114.583C104.221 118.683 100.438 121.807 93.371 121.617C90.764 121.555 88.6974 119.394 88.759 116.782C88.8206 114.175 90.982 112.108 93.5938 112.17C96.1012 112.236 97.2957 111.431 97.8313 110.359C98.6608 108.7 98.7319 106.174 98.7462 104.297L99.0211 65.343ZM140.724 60.053C143.122 60.053 145.089 62.0154 145.089 64.4186V78.3355C145.089 80.734 143.127 82.7011 140.724 82.7011C138.325 82.7011 136.358 80.7387 136.358 78.3355V64.4186C136.358 62.0202 138.32 60.053 140.724 60.053Z" fill="#016AC3"/>
<path d="M66 162C77.6758 148.417 108.593 129.4 138.857 162" stroke="#016AC3" stroke-width="8.57143" stroke-linecap="round" stroke-linejoin="round"/>
</svg>
