<svg width="201" height="200" viewBox="0 0 201 200" fill="none" xmlns="http://www.w3.org/2000/svg">
<path d="M146.104 9.94059C143.487 9.94059 141.363 7.81703 141.363 5.20052C141.363 2.584 143.487 0.460449 146.104 0.460449H171.6C179.426 0.460449 186.536 3.65999 191.688 8.81245C196.84 13.9649 200.04 21.075 200.04 28.9009V53.8715C200.04 56.488 197.916 58.6116 195.3 58.6116C192.683 58.6116 190.56 56.488 190.56 53.8715V28.9009C190.56 23.6915 188.427 18.9515 184.986 15.5149C181.549 12.0784 176.809 9.94059 171.6 9.94059H146.104ZM190.56 146.578C190.56 143.961 192.683 141.838 195.3 141.838C197.916 141.838 200.04 143.961 200.04 146.578V171.103C200.04 178.929 196.84 186.039 191.688 191.191C186.536 196.344 179.426 199.543 171.6 199.543H145.928C143.312 199.543 141.188 197.42 141.188 194.803C141.188 192.187 143.312 190.063 145.928 190.063H171.6C176.809 190.063 181.549 187.93 184.986 184.489C188.422 181.052 190.56 176.312 190.56 171.103V146.578ZM53.8773 190.063C56.4938 190.063 58.6173 192.187 58.6173 194.803C58.6173 197.42 56.4938 199.543 53.8773 199.543H29.4C21.5742 199.543 14.4642 196.344 9.31184 191.191C4.15946 186.039 0.959961 178.929 0.959961 171.103V146.578C0.959961 143.961 3.08348 141.838 5.69996 141.838C8.31644 141.838 10.44 143.961 10.44 146.578V171.103C10.44 176.312 12.573 181.052 16.0142 184.489C19.4507 187.925 24.1907 190.063 29.4 190.063H53.8773ZM10.44 53.4686C10.44 56.0851 8.31644 58.2087 5.69996 58.2087C3.08348 58.2087 0.959961 56.0851 0.959961 53.4686V28.9009C0.959961 21.075 4.15946 13.9649 9.31184 8.81245C14.4642 3.65999 21.5742 0.460449 29.4 0.460449H54.6025C57.219 0.460449 59.3425 2.584 59.3425 5.20052C59.3425 7.81703 57.219 9.94059 54.6025 9.94059H29.4C24.1907 9.94059 19.4507 12.0736 16.0142 15.5149C12.5777 18.9515 10.44 23.6915 10.44 28.9009V53.4686ZM59.6127 59.5549C62.0112 59.5549 63.9783 61.5173 63.9783 63.9205V77.8373C63.9783 80.2358 62.0159 82.2029 59.6127 82.2029C57.2143 82.2029 55.2472 80.2405 55.2472 77.8373V63.9205C55.2472 61.522 57.2095 59.5549 59.6127 59.5549ZM99.0211 64.8448C99.0306 62.2378 101.154 60.1332 103.761 60.1426C106.368 60.1521 108.473 62.2757 108.463 64.8827L108.188 103.837C108.169 106.681 108.032 110.572 106.273 114.085C104.221 118.185 100.438 121.308 93.371 121.119C90.764 121.057 88.6974 118.896 88.759 116.284C88.8206 113.677 90.982 111.61 93.5938 111.672C96.1012 111.738 97.2957 110.932 97.8313 109.861C98.6608 108.202 98.7319 105.676 98.7462 103.799L99.0211 64.8448ZM64.0778 140.582C62.5326 138.477 62.9876 135.514 65.0969 133.969C67.2015 132.424 70.164 132.879 71.7092 134.988C72.6145 136.225 73.6763 137.354 74.8613 138.373C80.6536 143.35 89.4463 145.943 98.5755 146.052C107.795 146.161 117.208 143.729 124.119 138.667C125.821 137.42 127.357 136.022 128.689 134.472C130.386 132.486 133.372 132.258 135.353 133.955C137.339 135.652 137.567 138.638 135.87 140.62C134.04 142.748 131.969 144.639 129.708 146.293C121.1 152.598 109.601 155.627 98.4618 155.494C87.228 155.361 76.2169 152.01 68.7135 145.559C66.9692 144.061 65.4097 142.397 64.0778 140.582ZM140.724 59.5549C143.122 59.5549 145.089 61.5173 145.089 63.9205V77.8373C145.089 80.2358 143.127 82.2029 140.724 82.2029C138.325 82.2029 136.358 80.2405 136.358 77.8373V63.9205C136.358 61.522 138.32 59.5549 140.724 59.5549Z" fill="#016AC3"/>
</svg>
